<?xml version="1.0" encoding="UTF-8" standalone="no"?>
<!-- Created with Inkscape (http://www.inkscape.org/) -->
<svg id="svg3222" xmlns="http://www.w3.org/2000/svg" height="16" width="16" version="1.0">
 <path id="path3220" style="fill:#4d4d4d;fill-rule:evenodd" d="m7.9402 10.056 5.5131 5.7901c0.09497 0.10582 0.23427 0.16205 0.38313 0.15465s0.29323-0.07774 0.39706-0.19345l0.94443-1.0513c0.19322-0.21977 0.19232-0.53772-0.0021-0.72168l-5.5455-5.3566-1.6893 1.3786z"/>
 <path id="path2447" style="fill-opacity:.58824;fill-rule:evenodd;stroke:#4d4d4d;stroke-width:2;fill:#fff" d="m6 11c-3 0-5-1.9411-5-5 0-3 1.9064-5 5-5 3 0 5 2 5 5 0 2.7758-1.8917 5-5 5z"/>
 <rect id="rect3590" style="fill:#4d4d4d" rx=".47059" ry=".23529" height=".94118" width="1" y="4.0588" x="4"/>
 <rect id="rect2819" style="fill:#4d4d4d" transform="matrix(.0062709 .99998 -.99998 .0064692 0 0)" rx=".29956" ry=".29493" height="1.9662" width="5.9912" y="-6.9454" x="3.0431"/>
</svg>
